HIERARCHY
ROOT Hips
{
	OFFSET 0.000000 0.000000 0.000000
	CHANNELS 6 Xposition Yposition Zposition Zrotation Yrotation Xrotation 
	JOINT LHipJoint
	{
		OFFSET 0.000000 0.000000 0.000000
		CHANNELS 3 Zrotation Yrotation Xrotation
		JOINT LeftUpLeg
		{
			OFFSET 1.363060 -1.794630 0.839290
			CHANNELS 3 Zrotation Yrotation Xrotation
			JOINT LeftLeg
			{
				OFFSET 2.448110 -6.726130 0.000000
				CHANNELS 3 Zrotation Yrotation Xrotation
				JOINT LeftFoot
				{
					OFFSET 2.562200 -7.039590 0.000000
					CHANNELS 3 Zrotation Yrotation Xrotation
					JOINT LeftToeBase
					{
						OFFSET 0.157640 -0.433110 2.322550
						CHANNELS 3 Zrotation Yrotation Xrotation
						End Site
						{
							OFFSET 0.000000 0.000000 0.000000
						}
					}
				}
			}
		}
	}
	JOINT RHipJoint
	{
		OFFSET 0.000000 0.000000 0.000000
		CHANNELS 3 Zrotation Yrotation Xrotation
		JOINT RightUpLeg
		{
			OFFSET -1.305520 -1.794630 0.839290
			CHANNELS 3 Zrotation Yrotation Xrotation
			JOINT RightLeg
			{
				OFFSET -2.542530 -6.985550 0.000000
				CHANNELS 3 Zrotation Yrotation Xrotation
				JOINT RightFoot
				{
					OFFSET -2.568260 -7.056230 0.000000
					CHANNELS 3 Zrotation Yrotation Xrotation
					JOINT RightToeBase
					{
						OFFSET -0.164730 -0.452590 2.363150
						CHANNELS 3 Zrotation Yrotation Xrotation
						End Site
						{
							OFFSET 0.000000 0.000000 0.000000
						}
					}
				}
			}
		}
	}
}
MOTION
Frames: 25
Frame Time: 0.008333
-3.565856 16.765016 1.232313 -35.114978 83.993744 -15.198009 -8.597605 2.477441 3.206106 -23.670917 2.361609 -45.515194 -3.647929 0.315120 22.785756 1.638398 5.186735 -11.675818 -0.239200 -0.000000 -12.009901 10.160235 -4.627826 0.313484 9.728955 -11.445443 -5.115637 2.342856 -1.362695 23.674506 1.353019 16.678343 9.015937 3.920500 -0.000000 -72.901900
-3.387896 16.709221 1.229383 -34.448365 83.796208 -14.697012 -8.614096 2.452790 3.338051 -23.081927 1.437525 -45.938309 -3.387927 0.560686 25.579452 1.905269 6.071037 -13.217895 -0.497200 0.000000 -6.393600 10.335948 -4.629688 0.184766 8.916195 -12.318381 -5.783709 2.177115 -1.536371 26.091491 1.356838 18.918318 9.952467 4.746100 -0.000000 -74.370201
-3.214892 16.659656 1.225508 -32.429114 83.580598 -12.893070 -8.662272 2.427730 3.402653 -22.669343 0.741482 -46.239701 -3.153935 0.800562 28.299903 2.151787 6.907274 -14.693821 -0.788400 0.000000 -2.167100 10.496288 -4.601613 0.043770 7.939507 -13.172344 -6.541004 1.978208 -1.706548 28.648298 1.319441 21.215790 11.114858 5.744500 0.000000 -75.602000
-3.046858 16.617283 1.219903 -29.518859 83.348674 -10.236769 -8.739608 2.395694 3.401081 -22.436277 0.289395 -46.371929 -2.955841 1.015722 30.789711 2.370675 7.676116 -16.066882 178.901300 -0.000000 -0.625000 10.630681 -4.552511 -0.100499 6.862438 -13.950491 -7.363018 1.757781 -1.872052 31.274803 1.241536 23.396768 12.474045 6.897000 -0.000000 -76.487500
-2.883553 16.582686 1.211807 -26.183719 83.105212 -7.180393 -8.836240 2.352979 3.341045 -22.369336 0.069940 -46.307384 -2.798459 1.191610 32.934684 2.561354 8.369783 -17.329040 178.582101 0.000000 -2.136999 10.738477 -4.491877 -0.241236 5.743492 -14.622753 -8.239713 1.527851 -2.034940 33.921639 1.131377 25.291709 13.984071 8.154200 0.000000 -76.956300
-2.724674 16.556067 1.201211 -22.577297 82.860792 -3.871497 -8.939143 2.301417 3.234017 -22.467753 0.044186 -46.015637 -2.683313 1.318308 34.648272 2.728790 9.000845 -18.475711 178.261200 0.000000 -2.582000 10.825980 -4.423495 -0.379710 4.594137 -15.201378 -9.169268 1.296955 -2.199000 36.566422 0.999648 26.766332 15.590193 9.438000 0.000001 -77.001200
-2.569540 16.537356 1.186745 -19.397964 82.605034 -0.993050 -9.032199 2.244841 3.091698 -22.653969 0.193838 -45.528471 -2.604294 1.394976 35.924551 2.874088 9.557236 -19.512231 177.946800 -0.000000 -2.175400 10.903838 -4.352057 -0.505351 3.510625 -15.651182 -10.134514 1.070375 -2.363731 39.162993 0.858310 27.646776 17.231319 10.612900 0.000000 -76.670700
-2.417594 16.526125 1.168333 -16.639313 82.342294 1.460845 -9.108053 2.191154 2.927552 -22.907555 0.471180 -44.842955 -2.557070 1.423031 36.751908 3.002076 10.055517 -20.430391 177.645100 0.000000 -1.146600 10.977799 -4.272599 -0.622774 2.490038 -15.999238 -11.128104 0.848016 -2.528795 41.701777 0.713343 27.849972 18.849061 11.548700 0.000000 -76.084700
-2.268092 16.521799 1.145160 -14.554176 82.068002 3.243548 -9.165444 2.145960 2.754620 -23.166921 0.842611 -43.993403 -2.533913 1.409498 37.169333 3.113523 10.494924 -21.228421 -2.636200 0.000000 -0.255200 11.048501 -4.181561 -0.729757 1.577534 -16.241332 -12.135080 0.628366 -2.689658 44.157207 0.567303 27.300891 20.378460 12.107300 -0.000000 -75.382800
-2.120411 16.523666 1.117080 -13.102766 81.789701 4.397292 -9.208699 2.110646 2.584701 -23.400378 1.261258 -43.001423 -2.527671 1.361189 37.222003 3.210120 10.884690 -21.903615 -2.892300 -0.000000 -1.754100 11.112791 -4.075424 -0.828531 0.777740 -16.392059 -13.145760 0.411193 -2.842965 46.512297 0.418061 25.993562 21.746885 12.191700 0.000000 -74.678400
-1.974001 16.531037 1.084298 -12.169351 81.520888 5.040601 -9.243027 2.083019 2.427058 -23.588788 1.677844 -41.886885 -2.531103 1.284755 36.966523 3.293503 11.235834 -22.455911 -3.120200 -0.000000 -3.079600 11.167591 -3.952686 -0.921305 0.083403 -16.465371 -14.151262 0.198684 -2.986740 48.749517 0.261858 23.978880 22.869713 11.759200 -0.000001 -74.009100
-1.828368 16.543242 1.046882 -11.749532 81.273729 5.186636 -9.274347 2.060062 2.290378 -23.703674 2.050954 -40.687109 -2.536609 1.188319 36.477417 3.364256 11.553336 -22.890631 -3.317800 0.000000 -4.024900 11.209586 -3.814594 -1.006561 -0.491823 -16.462217 -15.146359 -0.005896 -3.118423 50.847750 0.095994 21.354602 23.660522 10.828200 -0.000000 -73.328400
-1.683197 16.559743 1.005368 -11.761264 81.064196 4.925391 -9.306700 2.038649 2.180255 -23.735799 2.343686 -39.432348 -2.538064 1.079031 35.824064 3.423345 11.845298 -23.210418 -3.484000 0.000000 -4.485200 11.237634 -3.663941 -1.083541 -0.949455 -16.387718 -16.129010 -0.197906 -3.237642 52.788823 -0.079716 18.281007 24.044654 9.488099 0.000000 -72.546100
-1.538379 16.580167 0.960479 -12.139121 80.907522 4.329407 -9.342495 2.016893 2.099275 -23.683861 2.531410 -38.152413 -2.531135 0.963845 35.071645 3.470726 12.114670 -23.416741 -3.617000 0.000000 -4.475900 11.252142 -3.504866 -1.151258 -1.291876 -16.246282 -17.097927 -0.372784 -3.344949 54.555522 -0.261827 14.961148 23.979587 7.884000 -0.000000 -71.577400
-1.393914 16.604217 0.913020 -12.857160 80.816495 3.431720 -9.383149 1.994581 2.047297 -23.551022 2.606628 -36.877675 -2.513674 0.849103 34.275811 3.505229 12.357878 -23.510177 -3.713699 0.000000 -4.113900 11.254233 -3.342675 -1.207807 -1.518003 -16.040089 -18.053634 -0.526841 -3.440911 56.131876 -0.443368 11.614816 23.466445 6.186601 0.000000 -70.363200
-1.249948 16.631748 0.863793 -13.904413 80.801357 2.248157 -9.429130 1.972664 2.021271 -23.345358 2.577730 -35.633385 -2.485889 0.739843 33.477947 3.524261 12.563208 -23.490256 -3.769800 -0.000000 -3.578800 11.245603 -3.182985 -1.251206 -1.627514 -15.771610 -18.996092 -0.657381 -3.525821 57.502196 -0.615430 8.447868 22.556194 4.558700 0.000000 -68.943200
-1.106723 16.662690 0.813665 -15.277920 80.869911 0.782839 -9.479896 1.952840 2.015022 -23.080943 2.467318 -34.434930 -2.450111 0.639228 32.701003 3.524586 12.714198 -23.356857 -3.780400 0.000000 -3.066600 11.228414 -3.030783 -1.280182 -1.625315 -15.444025 -19.922496 -0.762730 -3.599894 58.654763 -0.768585 5.625738 21.334525 3.125699 -0.000000 -67.366700
-0.964527 16.696922 0.763393 -16.997372 81.026193 -0.985739 -9.534655 1.936766 2.020717 -22.772116 2.306918 -33.288775 -2.409793 0.548559 31.951404 3.502711 12.791915 -23.110062 -3.741500 -0.000000 -2.751700 11.204579 -2.889971 -1.293806 -1.518221 -15.059675 -20.827797 -0.842079 -3.662884 59.579868 -0.894846 3.254408 19.908378 1.959000 -0.000001 -65.724800
-0.823581 16.734308 0.713593 -19.104140 81.270612 -3.102350 -9.592590 1.925562 2.030398 -22.432118 2.130406 -32.194185 -2.368754 0.467416 31.221878 3.455519 12.777860 -22.750580 -3.650200 -0.000000 -2.763000 11.175562 -2.763465 -1.291641 -1.314774 -14.620881 -21.705998 -0.895359 -3.714671 60.273535 -0.988549 1.379917 18.382456 1.077700 -0.000000 -64.052400
-0.684122 16.774639 0.664715 -21.668116 81.599885 -5.642055 -9.653243 1.919330 2.036588 -22.072097 1.969185 -31.143590 -2.330277 0.394067 30.495364 3.381069 12.658990 -22.279162 -3.506600 0.000000 -3.174800 11.142048 -2.652837 -1.273691 -1.025749 -14.129202 -22.550108 -0.923132 -3.755138 60.733584 -1.047976 -0.008049 16.854900 0.460100 0.000000 -62.448100
-0.546198 16.817617 0.617027 -24.783537 82.007072 -8.703603 -9.716750 1.917086 2.033817 -21.701111 1.846230 -30.126330 -2.296582 0.326038 29.750970 3.278920 12.429503 -21.696045 -3.313200 -0.000000 -4.007000 11.103807 -2.558741 -1.240273 -0.664322 -13.586578 -23.355277 -0.926599 -3.784722 60.963122 -1.075116 -0.962209 15.401379 0.059700 0.000000 -60.967700
-0.409810 16.862788 0.570621 -28.593483 82.480974 -12.434681 -9.784548 1.916563 2.018900 -21.323540 1.774956 -29.131691 -2.268580 0.260775 28.969637 3.149985 12.090030 -21.002872 -3.075500 -0.000001 -5.232200 11.059191 -2.481460 -1.192448 -0.242917 -12.996191 -24.119170 -0.907529 -3.804574 60.972551 -1.074977 -1.563534 14.065073 -0.179499 0.000000 -59.528200
-0.274840 16.909670 0.525457 -33.282215 83.006158 -17.022322 -9.859615 1.914662 1.991425 -20.942619 1.757404 -28.151097 -2.245930 0.196082 28.137906 2.996841 11.649220 -20.202663 -2.801600 -0.000000 -6.781500 11.004698 -2.420677 -1.131205 0.224861 -12.362134 -24.843297 -0.868361 -3.815770 60.774237 -1.056271 -1.915821 12.874286 -0.314400 0.000000 -58.183900
-0.141068 16.957683 0.481437 -39.058638 83.561835 -22.676937 -9.946342 1.908373 1.953837 -20.562615 1.784175 -27.179791 -2.227631 0.130641 27.249597 2.823680 11.122872 -19.302011 -2.502100 0.000000 -8.551400 10.934989 -2.374866 -1.057763 0.722229 -11.689790 -25.534366 -0.812392 -3.819160 60.386033 -1.029310 -2.128638 11.835181 -0.394700 0.000001 -56.941700
-0.008131 17.006233 0.438652 -46.092080 84.121336 -29.566444 -10.048487 1.897278 1.912726 -20.195295 1.830833 -26.215910 -2.212810 0.064201 26.302537 2.637089 10.537341 -18.312262 -2.189599 -0.000000 -10.392200 10.844493 -2.339191 -0.973805 1.224383 -10.988890 -26.207660 -0.744056 -3.814775 59.835456 -1.003911 -2.301245 10.927770 -0.458100 0.000000 -55.746900
